<?xml version="1.0" encoding="UTF-8"?><!DOCTYPE svg PUBLIC "-//W3C//DTD SVG 1.0//EN" "http://www.w3.org/TR/2001/REC-SVG-20010904/DTD/svg10.dtd" []><svg xmlns="http://www.w3.org/2000/svg" xmlns:xlink="http://www.w3.org/1999/xlink" height="1127" preserveAspectRatio="xMidYMid meet" version="1.0" viewBox="284.0 449.1 1443.4 1126.9" width="1443" zoomAndPan="magnify"><g id="change1_1"><path d="m1471.5 449.2c6.9-0.1 15.3 0.5 22.5 1.7 6.3 1.1 14.2 2.9 17.5 4.1 3.3 1.1 8.7 3.6 12 5.4 3.3 1.9 8.9 5.7 12.5 8.5 3.6 2.9 9.6 8.6 13.3 12.9 3.8 4.2 9.3 11.3 12.2 15.7 2.9 4.4 6.6 10.7 8.3 14 1.6 3.3 4.1 9.1 5.5 13 1.4 3.9 3.4 10.8 4.5 15.5 1.1 4.7 2.6 12.8 3.4 18 0.8 6.1 1.3 18.5 1.2 34.5 0 16.8-0.6 29.9-1.8 40-0.9 8.3-2.8 20.9-4.1 28-1.3 7.1-3.8 18.9-5.5 26-1.7 7.1-4.5 17.7-6.1 23.5-1.7 5.8-5.1 16.8-7.6 24.5-2.5 7.7-6.5 19.4-9 26-2.4 6.6-7.1 18.5-10.3 26.5-3.2 8-8.5 20.6-11.8 28-3.3 7.4-7.7 17.1-9.7 21.5-2 4.4-8 16.5-13.2 27-5.2 10.5-11.8 23.3-14.6 28.5-2.8 5.2-9.8 17.8-15.5 28-5.7 10.2-13.8 24.1-18 31-4.1 6.9-10.8 17.8-14.9 24.3-4 6.4-7.2 11.9-7.1 12.1 0.2 0.2 12.9 0.6 28.3 1 15.4 0.4 36.3 1.3 46.5 2.1 10.2 0.8 20.5 1.8 23 2.1 2.5 0.3 11.5 1.7 20 3 8.5 1.4 25.8 4.7 38.5 7.5 12.7 2.8 35.2 7.7 50 11 14.8 3.2 34.4 7.9 43.5 10.3 9.1 2.4 20.5 5.9 25.5 7.7 5 1.9 10.2 4.5 11.7 5.9 1.5 1.4 3.3 3.6 4 5 0.9 1.6 1.2 4 0.9 6.5-0.6 3.7-0.9 4-4.1 4.3-1.9 0.2-6.2-0.3-9.5-1.2-3.3-0.8-12.5-2.6-20.5-4-8-1.4-20.8-3.4-28.5-4.5-7.7-1.2-22.8-3.2-33.5-4.5-10.7-1.4-26-3-34-3.6-8-0.5-26.4-1.7-41-2.5-14.6-0.8-36.4-1.9-48.5-2.5-12.1-0.5-39.8-1-101-1.1l-2.9 4.3c-1.6 2.4-9.3 13.3-17.1 24.3-7.8 11-21.8 30.1-31.1 42.5-9.4 12.4-23.1 30.2-30.5 39.5-7.5 9.3-19.8 24.4-27.4 33.5-7.5 9.1-21 24.8-29.9 35-8.8 10.1-21.5 24.3-28.1 31.5-6.5 7.1-15.5 16.8-19.9 21.5-4.4 4.7-18.2 18.6-30.6 31-12.4 12.4-25.9 25.7-30 29.5-4.1 3.9-12.5 11.5-18.6 17-6 5.5-12.6 11.4-14.5 13-1.9 1.7-9 7.8-15.8 13.5-6.8 5.8-13.8 11.6-15.6 13-1.9 1.4-8.1 6.3-14 11-5.9 4.7-13.3 10.5-16.5 13-3.3 2.5-9.2 6.9-13.2 9.8-4 2.9-10.5 7.6-14.3 10.4-3.8 2.8-16 11-27 18.3-11 7.3-24.7 16-30.5 19.5-5.8 3.5-16.8 9.9-24.5 14.3-7.7 4.4-23.9 13-36 19.2-12.1 6.1-29.4 14.3-38.5 18.3-9.1 3.9-24.4 10.1-34 13.7-9.6 3.7-24 8.8-32 11.5-8 2.7-21.5 6.9-30 9.4-8.5 2.4-20.9 5.8-27.5 7.5-6.6 1.6-15.8 3.9-20.5 5-4.7 1-13.5 2.8-19.5 4-6 1.1-16.6 3-23.5 4.1-6.9 1.1-14.8 2.3-17.5 2.6-2.7 0.3-6 0.7-7.2 0.9-1.3 0.3-10.5 1.2-20.6 2-10 0.8-28.3 1.8-40.7 2.1-13.3 0.4-30.7 0.2-42.5-0.5-11-0.7-24.3-1.6-29.5-2.2-5.2-0.6-16.7-2.2-25.5-3.5-8.8-1.4-22.1-3.8-29.5-5.5-7.4-1.6-20-4.7-28-6.9-8-2.1-21.9-6.5-31-9.6-9.1-3.1-22.8-8.3-30.5-11.6-7.7-3.3-16.7-7.4-20-9-3.3-1.7-10.7-5.8-16.5-9.1-5.8-3.3-14.3-8.7-19-12-4.7-3.3-12.8-9.4-18-13.6-5.2-4.2-14.5-12.6-20.7-18.6-10.1-9.9-11.2-11.4-11.9-15.5-0.3-2.5-0.4-5.3 0-6.2 0.5-1.4 1.3-1.7 3.9-1.2 1.7 0.4 4.6 1.7 6.2 3 1.6 1.2 7.5 5.9 13 10.4 5.5 4.5 15.4 11.8 22 16.2 6.6 4.4 19.6 11.8 29 16.3 9.4 4.6 23.1 10.6 30.5 13.3 7.4 2.7 19.8 6.8 27.5 9.1 7.7 2.2 20.8 5.7 29 7.6 8.3 1.9 21.3 4.6 29 6 7.7 1.3 20.8 3.2 29 4 8.3 0.9 26 1.9 39.5 2.2 14.2 0.3 32.5 0.1 43.5-0.6 10.5-0.6 24.9-1.8 32-2.7 7.1-0.8 19.3-2.4 27-3.5 7.7-1.1 22.8-3.7 33.5-5.9 10.7-2.1 26.9-5.7 36-7.9 9.1-2.2 21.5-5.4 27.5-7.1 6-1.7 18.2-5.4 27-8.2 8.8-2.7 21-6.8 27-9 6-2.2 18.4-6.9 27.5-10.5 9.1-3.6 22.1-9 29-12 6.9-3.1 20.6-9.6 30.5-14.6 9.9-4.9 25.2-13 34-18 8.8-4.9 23-13.2 31.5-18.5 8.5-5.2 24.3-15.4 35-22.6 10.7-7.3 25.6-17.6 33-23 7.4-5.4 20-14.9 27.9-21 8-6.1 22.6-17.9 32.5-26.2 10-8.3 25.3-21.5 34.1-29.4 8.8-7.9 29.3-27.6 45.5-43.9 16.2-16.3 38.3-39.3 49-51.1 10.7-11.8 22.2-24.7 25.5-28.5 3.4-3.9 10.4-12 15.6-18 5.2-6 13.7-16.2 19-22.5 5.2-6.3 13.3-16.2 17.9-22 4.7-5.8 11.8-14.8 15.9-20 4.1-5.2 13.4-17.4 20.6-27 7.2-9.6 16.1-21.5 26.2-35.5l-24.1-0.7c-13.3-0.4-31.1-1.2-39.6-1.8-8.5-0.6-22.5-1.7-31-2.6-8.5-0.8-22.2-2.4-30.5-3.5-8.2-1.1-17.2-2.4-20-2.9-2.7-0.6-10-1.9-16-3-6-1.2-18.2-3.8-27-5.9-8.8-2.2-22.1-5.7-29.5-8-7.4-2.2-17.5-5.4-22.5-7.1-5-1.8-14.6-5.5-21.5-8.2-6.9-2.8-19.2-8.4-27.5-12.4-8.2-4-20.2-10.2-26.5-13.9-6.3-3.7-16.5-9.9-22.5-13.9-6-4-16.9-11.7-24-17.1-7.1-5.4-17.5-13.7-23-18.5-5.5-4.8-16.1-15-23.7-22.6-7.5-7.7-16.9-17.7-20.9-22.4-4-4.7-10.4-12.8-14.4-18-4-5.2-10.8-14.9-15.2-21.5-4.4-6.6-10.9-17-14.3-23-3.5-6-9.4-17.3-13-25-3.7-7.7-9-19.6-11.8-26.5-2.7-6.9-7.1-19-9.7-27-2.5-8-6.6-22.1-9-31.5-2.4-9.4-5.3-22-6.5-28-1.1-6-2.7-16.9-3.5-24-0.8-7.1-1.5-20.4-1.5-29.5 0-9.1 0.5-21.7 1.1-28 0.5-6.3 1.9-16 3-21.5 1.1-5.5 3.4-14.3 5.1-19.5 1.7-5.2 5-14 7.5-19.5 2.4-5.5 7.2-14.3 10.7-19.5 3.5-5.2 9.7-12.8 13.7-16.9 4.1-4 10.3-9.2 13.9-11.6 3.6-2.3 9.6-5.6 13.5-7.3 3.9-1.6 9.5-3.7 12.5-4.6 3-0.9 9.8-2.3 15-3.1 5.2-0.8 16-1.5 24-1.5 9 0 19.8 0.8 28.5 2 7.7 1.1 17.6 2.7 22 3.6 4.4 0.8 12.5 2.9 18 4.4 5.5 1.6 16.3 5.4 24 8.5 7.7 3.1 18.7 8.1 24.5 11.2 5.8 3.1 15.5 9 21.5 13.1 6 4.1 14.8 10.5 19.5 14.2 4.7 3.7 14.3 12.8 21.5 20.2 7.2 7.3 16.4 17.6 20.6 22.8 4.2 5.2 10.8 14 14.6 19.5 3.9 5.5 10.6 15.9 14.9 23 4.3 7.1 11.4 20.2 15.9 29 4.5 8.8 10.3 21.4 12.9 28 2.7 6.6 6.8 18.1 9.2 25.5 2.4 7.4 4.8 15 5.2 16.9 0.4 1.8 0.9 3.5 1.2 3.7 0.3 0.2 3.2-4.7 6.4-10.9 3.3-6.2 10.4-19.3 15.9-29.2 5.5-9.9 14.7-25.6 20.6-35 5.8-9.4 14.6-22.9 19.5-30 4.9-7.1 13-18.4 18-25 5-6.6 13.6-17.4 19.1-24 5.5-6.6 16.8-18.8 25-27.1 8.3-8.3 18.4-17.9 22.5-21.4 4.1-3.5 12.5-10 18.5-14.5 6-4.5 13.9-9.9 17.5-12.2 3.6-2.2 10.7-6.1 15.8-8.7 5-2.5 12.7-6 17-7.7 4.2-1.7 12-4.1 17.2-5.4 5.2-1.3 10.8-2.6 12.5-2.8 1.7-0.2 8-0.5 14-0.5zm-11 44.2c-4.4 1.4-12 4.3-17 6.6-5 2.3-13.3 6.7-18.5 9.8-5.2 3.1-14.5 9.3-20.5 13.9-6 4.6-16.3 13.2-22.9 19.1-6.5 5.9-17.4 16.8-24.2 24.2-6.7 7.4-16.4 18.7-21.5 25-5 6.3-12.8 16.7-17.4 23-4.5 6.3-12.1 17.4-16.7 24.5-4.7 7.1-11.2 17.5-14.5 23-3.3 5.5-9.4 16.1-13.5 23.5-4.2 7.4-13 24.3-19.6 37.5-6.6 13.2-15.1 30.7-18.8 39-4.2 9.2-8.3 16.4-10.4 18.7-3.3 3.5-3.8 3.7-9.7 3.8-4.1 0-8.1-0.7-11.5-2.1-2.9-1.2-6.8-3.3-8.7-4.8-1.8-1.4-4.3-4.2-5.4-6.1-1.2-1.9-3.2-6.9-4.4-11-1.3-4.1-3.7-15.4-5.4-25-1.7-9.6-4.1-22-5.4-27.5-1.3-5.5-3.6-13.8-5.1-18.5-1.4-4.7-5.1-14.6-8.1-22-3-7.4-9.3-20.9-13.9-30-4.6-9.1-11.4-21.3-15.1-27.2-3.8-6-9.6-14.7-13-19.5-3.4-4.9-8.3-11.3-10.8-14.3-2.6-3-9.7-10.6-15.8-16.8-6.2-6.3-15.2-14.4-20.2-18.2-5-3.7-13.7-9.6-19.5-13.1-5.8-3.4-15.2-8.5-21-11.2-5.8-2.7-14.8-6.5-20-8.2-5.2-1.8-12.2-4-15.5-4.9-3.3-0.8-8.5-2-11.5-2.6-3-0.6-9.8-1.8-15-2.5-5.2-0.8-14.7-1.5-21-1.5-6.3 0-15.4 0.7-20.3 1.5-4.8 0.8-12.2 2.8-16.4 4.3-4.3 1.6-10.9 4.9-14.8 7.3-3.9 2.5-9.7 7.2-13 10.5-3.3 3.4-8.5 9.6-11.5 14-3 4.3-7.2 11.7-9.3 16.4-2.2 4.7-5.5 13.2-7.4 19-1.9 5.8-4.3 15.5-5.3 21.5-1 6-2.2 15.3-2.5 20.5-0.4 5.3-0.2 16.2 0.5 24.5 0.6 8.3 2 20.2 3.1 26.5 1.1 6.3 3.5 17.8 5.4 25.5 1.8 7.7 5.7 21 8.5 29.5 2.9 8.5 7.9 21.8 11.2 29.5 3.3 7.7 9 19.9 12.7 27 3.8 7.1 9.4 17.3 12.6 22.5 3.2 5.2 8.7 13.8 12.4 19 3.6 5.2 10.9 14.9 16.2 21.5 5.3 6.6 16.6 18.8 25 27 8.5 8.3 20.8 19.3 27.4 24.6 6.6 5.3 16.3 12.5 21.5 16.1 5.2 3.6 15.1 9.9 22 14 6.9 4.2 17.9 10.2 24.5 13.5 6.6 3.3 16.7 8.1 22.5 10.6 5.8 2.5 16.8 6.9 24.5 9.7 7.7 2.7 20.1 6.8 27.5 8.9 7.4 2.2 18 5.1 23.5 6.5 5.5 1.3 15.6 3.6 22.5 5 6.9 1.3 16.8 3.2 22 4 5.2 0.8 15.1 2.2 22 3 6.9 0.8 21.5 2.2 32.5 3.1 11 0.8 34 1.9 51 2.5 17 0.5 41.1 1 53.5 1h22.5c14.6-22.1 23.2-35.3 28.3-43.5 5.2-8.2 15.4-25.1 22.7-37.5 7.3-12.4 17.3-29.9 22.3-39 4.9-9.1 14.2-26.9 20.5-39.5 6.3-12.6 15.8-32.9 21.2-45 5.4-12.1 12.7-29.4 16.2-38.5 3.6-9.1 9.6-25.7 13.3-37 3.8-11.3 9.2-29.3 11.9-40 2.8-10.7 6.4-26.9 8-36 1.6-9.1 3.4-21.5 4-27.5 0.6-6 1.3-16.9 1.4-24 0.2-7.1 0-18.2-0.5-24.5-0.4-6.3-1.5-15.3-2.3-20-1.1-6-3.1-11.5-6.5-18.5-3.4-6.9-6.6-11.8-10.4-15.7-3.1-3.2-7.8-6.9-10.6-8.3-2.7-1.4-7.6-3.2-10.7-4-3.2-0.8-9.6-1.5-14.3-1.4-4.7 0-11.4 0.7-15 1.5-3.6 0.7-10.1 2.5-14.5 3.8z" fill="#a34641" fill-rule="evenodd"/></g></svg>